<?xml version="1.0" standalone="no"?>
<!DOCTYPE svg PUBLIC "-//W3C//DTD SVG 20010904//EN"
 "http://www.w3.org/TR/2001/REC-SVG-20010904/DTD/svg10.dtd">
<svg version="1.0" xmlns="http://www.w3.org/2000/svg"
 width="32.000000pt" height="32.000000pt" viewBox="0 0 32.000000 32.000000"
 preserveAspectRatio="xMidYMid meet">

<g transform="translate(0.000000,32.000000) scale(0.100000,-0.100000)"
fill="#000000" stroke="none">
<path d="M30 240 c0 -19 7 -20 130 -20 123 0 130 1 130 20 0 19 -7 20 -130 20
-123 0 -130 -1 -130 -20z"/>
<path d="M30 160 c0 -19 7 -20 130 -20 123 0 130 1 130 20 0 19 -7 20 -130 20
-123 0 -130 -1 -130 -20z"/>
<path d="M30 80 c0 -19 7 -20 130 -20 123 0 130 1 130 20 0 19 -7 20 -130 20
-123 0 -130 -1 -130 -20z"/>
</g>
</svg>
